<svg xmlns="http://www.w3.org/2000/svg" xmlns:xlink="http://www.w3.org/1999/xlink" width="500" zoomAndPan="magnify" viewBox="0 0 375 374.999991" height="500" preserveAspectRatio="xMidYMid meet" version="1.0"><path fill="#b8b8dc" d="M 0 62.5 L 62.5 62.5 L 62.5 125 C 27.984375 125 0 97.019531 0 62.5 Z M 125 62.5 C 125 97.019531 152.984375 125 187.5 125 L 187.5 62.5 Z M 250 62.5 C 250 97.019531 277.980469 125 312.5 125 L 312.5 62.5 Z M 0 250 C 0 284.519531 27.984375 312.5 62.5 312.5 L 62.5 250 Z M 125 250 C 125 284.519531 152.984375 312.5 187.5 312.5 L 187.5 250 Z M 250 250 C 250 284.519531 277.980469 312.5 312.5 312.5 L 312.5 250 Z M 250 250 " fill-opacity="1" fill-rule="nonzero"/><path fill="#342d47" d="M 62.5 62.5 C 97.019531 62.5 125 90.480469 125 125 L 62.5 125 Z M 187.5 125 L 250 125 C 250 90.480469 222.015625 62.5 187.5 62.5 Z M 312.5 125 L 375 125 C 375 90.480469 347.015625 62.5 312.5 62.5 Z M 62.5 312.5 L 125 312.5 C 125 277.980469 97.015625 250 62.5 250 Z M 187.5 312.5 L 250 312.5 C 250 277.980469 222.015625 250 187.5 250 Z M 312.5 312.5 L 375 312.5 C 375 277.980469 347.015625 250 312.5 250 Z M 312.5 312.5 " fill-opacity="1" fill-rule="nonzero"/><path fill="#a5a5c5" d="M 62.5 0 C 97.019531 0 125 27.984375 125 62.5 L 62.5 62.5 Z M 187.5 62.5 L 250 62.5 C 250 27.984375 222.019531 0 187.5 0 Z M 312.5 62.5 L 375 62.5 C 375 27.984375 347.015625 0 312.5 0 Z M 0 187.5 L 62.5 187.5 C 62.5 152.980469 34.515625 125 0 125 Z M 125 187.5 L 187.5 187.5 C 187.5 152.980469 159.515625 125 125 125 Z M 250 187.5 L 312.5 187.5 C 312.5 152.980469 284.515625 125 250 125 Z M 62.5 250 L 125 250 C 125 215.480469 97.015625 187.5 62.5 187.5 Z M 187.5 250 L 250 250 C 250 215.484375 222.019531 187.5 187.5 187.5 Z M 312.5 250 L 375 250 C 375 215.484375 347.015625 187.5 312.5 187.5 Z M 0 375 L 62.5 375 C 62.5 340.480469 34.515625 312.5 0 312.5 Z M 125 375 L 187.5 375 C 187.5 340.480469 159.515625 312.5 125 312.5 Z M 250 375 L 312.5 375 C 312.5 340.480469 284.515625 312.5 250 312.5 Z M 250 375 " fill-opacity="1" fill-rule="nonzero"/><path fill="#141414" d="M 0 0 L 62.5 0 C 62.5 34.519531 34.515625 62.5 0 62.5 Z M 125 62.5 C 159.515625 62.5 187.5 34.519531 187.5 0 L 125 0 Z M 250 62.5 C 284.519531 62.5 312.5 34.515625 312.5 0 L 250 0 Z M 62.5 187.5 C 97.019531 187.5 125 159.515625 125 125 L 62.5 125 Z M 187.5 187.5 C 222.019531 187.5 250 159.515625 250 125 L 187.5 125 Z M 312.5 187.5 C 347.015625 187.5 375 159.515625 375 125 L 312.5 125 Z M 0 250 C 34.519531 250 62.5 222.015625 62.5 187.5 L 0 187.5 Z M 125 250 C 159.515625 250 187.5 222.019531 187.5 187.5 L 125 187.5 Z M 250 250 C 284.519531 250 312.5 222.015625 312.5 187.5 L 250 187.5 Z M 62.5 375 C 97.019531 375 125 347.015625 125 312.5 L 62.5 312.5 Z M 187.5 375 C 222.019531 375 250 347.015625 250 312.5 L 187.5 312.5 Z M 312.5 375 C 347.015625 375 375 347.015625 375 312.5 L 312.5 312.5 Z M 312.5 375 " fill-opacity="1" fill-rule="nonzero"/></svg>